<?xml version="1.0" encoding="UTF-8" standalone="no" ?>
<!DOCTYPE svg PUBLIC "-//W3C//DTD SVG 1.1//EN" "http://www.w3.org/Graphics/SVG/1.1/DTD/svg11.dtd">
<svg xmlns="http://www.w3.org/2000/svg" xmlns:xlink="http://www.w3.org/1999/xlink" version="1.1" width="400" height="400" viewBox="0 0 400 400" xml:space="preserve">
<desc>Created with Fabric.js 3.6.2</desc>
<defs>
</defs>
<g transform="matrix(18.19 0 0 18.19 200 200)" id="moon"  >
<path style="stroke: none; stroke-width: 1; stroke-dasharray: none; stroke-linecap: butt; stroke-dashoffset: 0; stroke-linejoin: miter; stroke-miterlimit: 4; fill: rgb(255,255,255); fill-rule: evenodd; opacity: 1;"  transform=" translate(-16.5, -16.5)" d="M 21.8364888 17.8310925 C 21.2394286 20.222796 19.0766283 21.9946037 16.5 21.9946037 C 13.4624337 21.9946037 11 19.5321699 11 16.4946037 C 11 13.9179753 12.7718077 11.7551751 15.1635112 11.1581148 C 15.5148964 11.0703957 15.879662 11.0164731 16.2541551 11 C 16.089541 11.4676426 16 11.9706664 16 12.4946037 C 16 14.9798852 18.0147185 16.9946037 20.5 16.9946037 C 21.0239372 16.9946037 21.5269611 16.9050627 21.9946037 16.7404486 C 21.9781305 17.1149417 21.9242079 17.4797073 21.8364888 17.8310925 L 21.8364888 17.8310925 Z M 12 16.4946037 C 12 14.5332594 13.2547894 12.8649871 15.0053963 12.2487587 C 15.0018113 12.3302589 15 12.4122197 15 12.4946037 C 15 15.5321699 17.4624337 17.9946037 20.5 17.9946037 C 20.5823839 17.9946037 20.6643448 17.9927923 20.7458449 17.9892073 C 20.1296166 19.7398142 18.4613443 20.9946037 16.5 20.9946037 C 14.0147185 20.9946037 12 18.9798852 12 16.4946037 L 12 16.4946037 Z" stroke-linecap="round" />
</g>
</svg>